<svg xmlns="http://www.w3.org/2000/svg" viewBox="0 0 1024 1024" role="img" aria-labelledby="title desc">
  <title id="title">ThriveScale logo</title>
  <desc id="desc">Orange gradient ThriveScale logo with stacked server icon and wordmark.</desc>
  <defs>
    <linearGradient id="bg" x1="0%" y1="0%" x2="100%" y2="100%">
      <stop offset="0%" stop-color="#ff4c1f" />
      <stop offset="100%" stop-color="#ff9c28" />
    </linearGradient>
    <linearGradient id="metal" x1="0%" y1="0%" x2="100%" y2="100%">
      <stop offset="0%" stop-color="#ffffff" />
      <stop offset="100%" stop-color="#cfd5e0" />
    </linearGradient>
    <linearGradient id="shadowFade" x1="0%" y1="0%" x2="100%" y2="0%">
      <stop offset="0%" stop-color="#26283a" />
      <stop offset="100%" stop-color="#40455a" />
    </linearGradient>
    <filter id="drop" x="-20%" y="-20%" width="140%" height="140%">
      <feDropShadow dx="0" dy="16" stdDeviation="10" flood-color="#8e2508" flood-opacity="0.28" />
    </filter>
  </defs>

  <rect width="1024" height="1024" fill="url(#bg)" rx="44" />
  <ellipse cx="521" cy="646" rx="274" ry="52" fill="#db4d16" opacity="0.45" />

  <g transform="translate(0,8)" filter="url(#drop)">
    <g transform="translate(312 204)">
      <rect x="0" y="262" width="392" height="88" rx="18" fill="url(#shadowFade)" />
      <path d="M32 220h328c17 0 30 14 30 30s-13 30-30 30H32c-18 0-32-14-32-30s14-30 32-30z" fill="#b33710" />
      <path d="M14 196h356c24 0 44 20 44 44v68c0 25-20 45-44 45H14c-8 0-14-6-14-14v-99c0-24 20-44 44-44z" fill="url(#metal)" stroke="#9a2f12" stroke-width="8" />
      <circle cx="35" cy="264" r="12" fill="#ff6c14" />
      <circle cx="75" cy="264" r="12" fill="#ff9c1c" />
      <circle cx="115" cy="264" r="12" fill="#21b31b" />
      <circle cx="155" cy="264" r="12" fill="#26a5f4" />
      <rect x="278" y="244" width="58" height="40" rx="5" fill="#eef1f7" stroke="#b8bfca" stroke-width="4" />
    </g>

    <g transform="translate(312 116)">
      <rect x="0" y="262" width="392" height="88" rx="18" fill="url(#shadowFade)" />
      <path d="M32 220h328c17 0 30 14 30 30s-13 30-30 30H32c-18 0-32-14-32-30s14-30 32-30z" fill="#b33710" />
      <path d="M14 196h356c24 0 44 20 44 44v68c0 25-20 45-44 45H14c-8 0-14-6-14-14v-99c0-24 20-44 44-44z" fill="url(#metal)" stroke="#9a2f12" stroke-width="8" />
      <circle cx="35" cy="264" r="12" fill="#ff2e1c" />
      <circle cx="75" cy="264" r="12" fill="#ff9018" />
      <circle cx="115" cy="264" r="12" fill="#53b916" />
      <circle cx="155" cy="264" r="12" fill="#289fed" />
      <rect x="278" y="244" width="58" height="40" rx="5" fill="#eef1f7" stroke="#b8bfca" stroke-width="4" opacity="0.15" />
    </g>

    <g transform="translate(312 50)">
      <path d="M26 168 164 58h140l134 110v66l-125 88-121-90v86l-90-70H26z" fill="url(#metal)" stroke="#9a2f12" stroke-width="8" stroke-linejoin="round" />
      <path d="M182 158h98v86l-38-28-60-58z" fill="#ff6417" />
      <path d="M51 180 189 74h132l97 78-127 89-102-73v76l-137-103z" fill="#ffffff" opacity="0.38" />
    </g>
  </g>

  <g font-family="Trebuchet MS, Verdana, sans-serif" text-anchor="middle">
    <text x="512" y="814" font-size="118" font-weight="800" fill="#8d2508" opacity="0.45">thrivescale</text>
    <text x="512" y="800" font-size="118" font-weight="800" fill="#ffffff">thrivescale</text>
    <text x="512" y="882" font-size="62" font-weight="700" fill="#ffffff">autoscaling framework</text>
  </g>
</svg>
